<svg id="visual" viewBox="0 0 900 600" width="900" height="600" xmlns="http://www.w3.org/2000/svg" xmlns:xlink="http://www.w3.org/1999/xlink" version="1.1"><rect x="0" y="0" width="900" height="600" fill="#001220"></rect><defs><linearGradient id="grad1_0" x1="33.3%" y1="100%" x2="100%" y2="0%"><stop offset="20%" stop-color="#ff00d1" stop-opacity="1"></stop><stop offset="80%" stop-color="#ff00d1" stop-opacity="1"></stop></linearGradient></defs><defs><linearGradient id="grad1_1" x1="33.3%" y1="100%" x2="100%" y2="0%"><stop offset="20%" stop-color="#ff00d1" stop-opacity="1"></stop><stop offset="80%" stop-color="#423e96" stop-opacity="1"></stop></linearGradient></defs><defs><linearGradient id="grad1_2" x1="33.3%" y1="100%" x2="100%" y2="0%"><stop offset="20%" stop-color="#001220" stop-opacity="1"></stop><stop offset="80%" stop-color="#423e96" stop-opacity="1"></stop></linearGradient></defs><defs><linearGradient id="grad2_0" x1="0%" y1="100%" x2="66.7%" y2="0%"><stop offset="20%" stop-color="#ff00d1" stop-opacity="1"></stop><stop offset="80%" stop-color="#ff00d1" stop-opacity="1"></stop></linearGradient></defs><defs><linearGradient id="grad2_1" x1="0%" y1="100%" x2="66.7%" y2="0%"><stop offset="20%" stop-color="#423e96" stop-opacity="1"></stop><stop offset="80%" stop-color="#ff00d1" stop-opacity="1"></stop></linearGradient></defs><defs><linearGradient id="grad2_2" x1="0%" y1="100%" x2="66.7%" y2="0%"><stop offset="20%" stop-color="#423e96" stop-opacity="1"></stop><stop offset="80%" stop-color="#001220" stop-opacity="1"></stop></linearGradient></defs><g transform="translate(900, 600)"><path d="M-486.7 0C-488.5 -71.8 -490.3 -143.6 -449.7 -186.3C-409.1 -229 -326.1 -242.6 -275.1 -275.1C-224.1 -307.5 -205.1 -358.8 -164.6 -397.3C-124 -435.7 -62 -461.2 0 -486.7L0 0Z" fill="#002c5c"></path><path d="M-324.5 0C-325.7 -47.9 -326.9 -95.7 -299.8 -124.2C-272.7 -152.6 -217.4 -161.7 -183.4 -183.4C-149.4 -205 -136.7 -239.2 -109.7 -264.8C-82.7 -290.5 -41.3 -307.5 0 -324.5L0 0Z" fill="#9b3ec1"></path><path d="M-162.2 0C-162.8 -23.9 -163.4 -47.9 -149.9 -62.1C-136.4 -76.3 -108.7 -80.9 -91.7 -91.7C-74.7 -102.5 -68.4 -119.6 -54.9 -132.4C-41.3 -145.2 -20.7 -153.7 0 -162.2L0 0Z" fill="#ff00d1"></path></g><g transform="translate(0, 0)"><path d="M486.7 0C485.4 69.2 484.1 138.5 449.7 186.3C415.3 234.1 347.9 260.4 299.8 299.8C251.7 339.2 222.8 391.7 176 425C129.3 458.3 64.6 472.5 0 486.7L0 0Z" fill="#002c5c"></path><path d="M324.5 0C323.6 46.2 322.7 92.3 299.8 124.2C276.9 156 232 173.6 199.9 199.9C167.8 226.1 148.5 261.1 117.4 283.3C86.2 305.5 43.1 315 0 324.5L0 0Z" fill="#9b3ec1"></path><path d="M162.2 0C161.8 23.1 161.4 46.2 149.9 62.1C138.4 78 116 86.8 99.9 99.9C83.9 113.1 74.3 130.6 58.7 141.7C43.1 152.8 21.5 157.5 0 162.2L0 0Z" fill="#ff00d1"></path></g></svg>