<svg id="visual" viewBox="0 0 900 600" width="900" height="600" xmlns="http://www.w3.org/2000/svg" xmlns:xlink="http://www.w3.org/1999/xlink" version="1.1"><rect x="0" y="0" width="900" height="600" fill="#001220"></rect><defs><linearGradient id="grad1_0" x1="33.3%" y1="0%" x2="100%" y2="100%"><stop offset="20%" stop-color="#f335ff" stop-opacity="1"></stop><stop offset="80%" stop-color="#f335ff" stop-opacity="1"></stop></linearGradient></defs><defs><linearGradient id="grad1_1" x1="33.3%" y1="0%" x2="100%" y2="100%"><stop offset="20%" stop-color="#f335ff" stop-opacity="1"></stop><stop offset="80%" stop-color="#2c44a4" stop-opacity="1"></stop></linearGradient></defs><defs><linearGradient id="grad1_2" x1="33.3%" y1="0%" x2="100%" y2="100%"><stop offset="20%" stop-color="#001220" stop-opacity="1"></stop><stop offset="80%" stop-color="#2c44a4" stop-opacity="1"></stop></linearGradient></defs><defs><linearGradient id="grad2_0" x1="0%" y1="0%" x2="66.7%" y2="100%"><stop offset="20%" stop-color="#f335ff" stop-opacity="1"></stop><stop offset="80%" stop-color="#f335ff" stop-opacity="1"></stop></linearGradient></defs><defs><linearGradient id="grad2_1" x1="0%" y1="0%" x2="66.7%" y2="100%"><stop offset="20%" stop-color="#2c44a4" stop-opacity="1"></stop><stop offset="80%" stop-color="#f335ff" stop-opacity="1"></stop></linearGradient></defs><defs><linearGradient id="grad2_2" x1="0%" y1="0%" x2="66.7%" y2="100%"><stop offset="20%" stop-color="#2c44a4" stop-opacity="1"></stop><stop offset="80%" stop-color="#001220" stop-opacity="1"></stop></linearGradient></defs><g transform="translate(900, 0)"><path d="M0 540.8C-34.2 542.1 -68.3 543.4 -91 516C-113.7 488.6 -124.9 432.5 -155.3 426.6C-185.7 420.7 -235.3 464.9 -270.4 468.4C-305.5 471.8 -326.1 434.5 -329.8 393C-333.4 351.5 -320 305.9 -342.4 287.3C-364.8 268.7 -423 277.2 -455.5 263C-488.1 248.8 -495.1 212.1 -488.6 177.9C-482.2 143.6 -462.3 111.9 -468.8 82.7C-475.2 53.4 -508 26.7 -540.8 0L0 0Z" fill="#002e61"></path><path d="M0 360.6C-22.8 361.4 -45.5 362.3 -60.7 344C-75.8 325.8 -83.2 288.4 -103.5 284.4C-123.8 280.5 -156.9 310 -180.3 312.2C-203.7 314.5 -217.4 289.6 -219.8 262C-222.2 234.3 -213.3 203.9 -228.3 191.6C-243.2 179.2 -282 184.8 -303.7 175.3C-325.4 165.9 -330.1 141.4 -325.8 118.6C-321.5 95.7 -308.2 74.6 -312.5 55.1C-316.8 35.6 -338.7 17.8 -360.6 0L0 0Z" fill="#8a4cdc"></path><path d="M0 180.3C-11.4 180.7 -22.8 181.1 -30.3 172C-37.9 162.9 -41.6 144.2 -51.8 142.2C-61.9 140.2 -78.4 155 -90.1 156.1C-101.8 157.3 -108.7 144.8 -109.9 131C-111.1 117.2 -106.7 102 -114.1 95.8C-121.6 89.6 -141 92.4 -151.8 87.7C-162.7 82.9 -165 70.7 -162.9 59.3C-160.7 47.9 -154.1 37.3 -156.3 27.6C-158.4 17.8 -169.3 8.9 -180.3 0L0 0Z" fill="#f335ff"></path></g><g transform="translate(0, 600)"><path d="M0 -540.8C27 -501.2 54 -461.5 77.8 -441.2C101.6 -420.8 122.3 -419.8 158.4 -435.1C194.4 -450.4 245.8 -482.1 270.4 -468.4C295.1 -454.7 292.9 -395.7 300.2 -357.7C307.4 -319.8 324 -303 337.8 -283.5C351.6 -263.9 362.6 -241.7 390.6 -225.5C418.6 -209.3 463.7 -199 487.7 -177.5C511.7 -156 514.6 -123.2 520 -91.7C525.3 -60.2 533.1 -30.1 540.8 0L0 0Z" fill="#002e61"></path><path d="M0 -360.6C18 -334.1 36 -307.7 51.9 -294.1C67.8 -280.6 81.5 -279.8 105.6 -290.1C129.6 -300.3 163.9 -321.4 180.3 -312.2C196.7 -303.1 195.3 -263.8 200.1 -238.5C205 -213.2 216 -202 225.2 -189C234.4 -176 241.7 -161.2 260.4 -150.3C279.1 -139.5 309.1 -132.7 325.1 -118.3C341.1 -104 343.1 -82.1 346.7 -61.1C350.2 -40.1 355.4 -20.1 360.6 0L0 0Z" fill="#8a4cdc"></path><path d="M0 -180.3C9 -167.1 18 -153.8 25.9 -147.1C33.9 -140.3 40.8 -139.9 52.8 -145C64.8 -150.1 81.9 -160.7 90.1 -156.1C98.4 -151.6 97.6 -131.9 100.1 -119.2C102.5 -106.6 108 -101 112.6 -94.5C117.2 -88 120.9 -80.6 130.2 -75.2C139.5 -69.8 154.6 -66.3 162.6 -59.2C170.6 -52 171.5 -41.1 173.3 -30.6C175.1 -20.1 177.7 -10 180.3 0L0 0Z" fill="#f335ff"></path></g></svg>