<svg id="visual" viewBox="0 0 900 600" width="900" height="600" xmlns="http://www.w3.org/2000/svg" xmlns:xlink="http://www.w3.org/1999/xlink" version="1.1"><rect x="0" y="0" width="900" height="600" fill="#001220"></rect><defs><linearGradient id="grad1_0" x1="33.3%" y1="0%" x2="100%" y2="100%"><stop offset="20%" stop-color="#f700ff" stop-opacity="1"></stop><stop offset="80%" stop-color="#f700ff" stop-opacity="1"></stop></linearGradient></defs><defs><linearGradient id="grad1_1" x1="33.3%" y1="0%" x2="100%" y2="100%"><stop offset="20%" stop-color="#f700ff" stop-opacity="1"></stop><stop offset="80%" stop-color="#2542a7" stop-opacity="1"></stop></linearGradient></defs><defs><linearGradient id="grad1_2" x1="33.3%" y1="0%" x2="100%" y2="100%"><stop offset="20%" stop-color="#001220" stop-opacity="1"></stop><stop offset="80%" stop-color="#2542a7" stop-opacity="1"></stop></linearGradient></defs><defs><linearGradient id="grad2_0" x1="0%" y1="0%" x2="66.7%" y2="100%"><stop offset="20%" stop-color="#f700ff" stop-opacity="1"></stop><stop offset="80%" stop-color="#f700ff" stop-opacity="1"></stop></linearGradient></defs><defs><linearGradient id="grad2_1" x1="0%" y1="0%" x2="66.7%" y2="100%"><stop offset="20%" stop-color="#2542a7" stop-opacity="1"></stop><stop offset="80%" stop-color="#f700ff" stop-opacity="1"></stop></linearGradient></defs><defs><linearGradient id="grad2_2" x1="0%" y1="0%" x2="66.7%" y2="100%"><stop offset="20%" stop-color="#2542a7" stop-opacity="1"></stop><stop offset="80%" stop-color="#001220" stop-opacity="1"></stop></linearGradient></defs><g transform="translate(900, 0)"><path d="M0 513.8C-34.6 508.5 -69.2 503.2 -96.2 483.5C-123.2 463.8 -142.7 429.8 -173 417.6C-203.3 405.4 -244.4 415.1 -263.3 394.1C-282.3 373.1 -279 321.3 -292.7 292.7C-306.4 264.1 -337.1 258.7 -368.3 246.1C-399.6 233.6 -431.5 213.9 -455.5 188.7C-479.5 163.4 -495.5 132.6 -503.9 100.2C-512.3 67.9 -513.1 33.9 -513.8 0L0 0Z" fill="#002e63"></path><path d="M0 342.5C-23.1 339 -46.1 335.5 -64.1 322.4C-82.1 309.2 -95.1 286.5 -115.3 278.4C-135.5 270.3 -162.9 276.8 -175.6 262.7C-188.2 248.7 -186 214.2 -195.2 195.2C-204.3 176.1 -224.7 172.5 -245.6 164.1C-266.4 155.7 -287.7 142.6 -303.6 125.8C-319.6 109 -330.3 88.4 -335.9 66.8C-341.5 45.2 -342 22.6 -342.5 0L0 0Z" fill="#8a44df"></path><path d="M0 171.3C-11.5 169.5 -23.1 167.7 -32.1 161.2C-41.1 154.6 -47.6 143.3 -57.7 139.2C-67.8 135.1 -81.5 138.4 -87.8 131.4C-94.1 124.4 -93 107.1 -97.6 97.6C-102.1 88 -112.4 86.2 -122.8 82C-133.2 77.9 -143.8 71.3 -151.8 62.9C-159.8 54.5 -165.2 44.2 -168 33.4C-170.8 22.6 -171 11.3 -171.3 0L0 0Z" fill="#f700ff"></path></g><g transform="translate(0, 600)"><path d="M0 -513.8C31.3 -492.4 62.6 -471.1 90.7 -456.1C118.8 -441.1 143.8 -432.4 179.9 -434.2C216 -436.1 263.2 -448.4 285.4 -427.2C307.6 -406 304.8 -351.3 321.7 -321.7C338.7 -292.2 375.5 -287.9 406.6 -271.7C437.6 -255.5 462.9 -227.3 472.1 -195.6C481.3 -163.8 474.4 -128.4 478.6 -95.2C482.9 -62 498.3 -31 513.8 0L0 0Z" fill="#002e63"></path><path d="M0 -342.5C20.9 -328.3 41.7 -314.1 60.5 -304C79.2 -294 95.8 -288.3 119.9 -289.5C144 -290.7 175.5 -298.9 190.3 -284.8C205.1 -270.7 203.2 -234.2 214.5 -214.5C225.8 -194.8 250.4 -191.9 271.1 -181.1C291.8 -170.3 308.6 -151.5 314.7 -130.4C320.9 -109.2 316.2 -85.6 319.1 -63.5C321.9 -41.3 332.2 -20.7 342.5 0L0 0Z" fill="#8a44df"></path><path d="M0 -171.3C10.4 -164.1 20.9 -157 30.2 -152C39.6 -147 47.9 -144.1 60 -144.7C72 -145.4 87.7 -149.5 95.1 -142.4C102.5 -135.3 101.6 -117.1 107.2 -107.2C112.9 -97.4 125.2 -96 135.5 -90.6C145.9 -85.2 154.3 -75.8 157.4 -65.2C160.4 -54.6 158.1 -42.8 159.5 -31.7C161 -20.7 166.1 -10.3 171.3 0L0 0Z" fill="#f700ff"></path></g></svg>